<svg id="visual" viewBox="0 0 900 440" width="900" height="440" xmlns="http://www.w3.org/2000/svg" xmlns:xlink="http://www.w3.org/1999/xlink" version="1.1"><rect x="0" y="0" width="900" height="440" fill="#040404"></rect><path d="M0 343L21.5 347C43 351 86 359 128.8 361.2C171.7 363.3 214.3 359.7 257.2 359.2C300 358.7 343 361.3 385.8 348.5C428.7 335.7 471.3 307.3 514.2 299.2C557 291 600 303 642.8 306.2C685.7 309.3 728.3 303.7 771.2 302.8C814 302 857 306 878.5 308L900 310L900 441L878.5 441C857 441 814 441 771.2 441C728.3 441 685.7 441 642.8 441C600 441 557 441 514.2 441C471.3 441 428.7 441 385.8 441C343 441 300 441 257.2 441C214.3 441 171.7 441 128.8 441C86 441 43 441 21.5 441L0 441Z" fill="#ffffff" stroke-linecap="round" stroke-linejoin="miter"></path></svg>